<svg xmlns="http://www.w3.org/2000/svg" viewBox="0 0 80.6 13.5"><defs><style>.cls-1{fill:#fff;}</style></defs><title>アセット 4</title><g id="レイヤー_2" data-name="レイヤー 2"><g id="レイヤー_1-2" data-name="レイヤー 1"><path class="cls-1" d="M8.38.32C8.11,1,7.8,2,7.44,3.18c-.3,1-.66,2.35-1.07,4S5.48,10.84,5,13.24c-.53,0-1.07-.07-1.64-.09s-1,0-1.6,0A16.39,16.39,0,0,0,0,13.23c.43-1.31.85-2.68,1.27-4.12.18-.61.36-1.26.55-2S2.18,5.74,2.36,5s.36-1.5.52-2.27.3-1.53.43-2.28c.48,0,1,0,1.54,0s1,0,1.62,0S7.71.39,8.38.32Z"/><path class="cls-1" d="M20.54.38c-.14.34-.27.72-.41,1.14s-.26.81-.41,1.31-.3,1.07-.45,1.68c-.5,0-1-.06-1.39-.06a1.53,1.53,0,0,0-.89.19,1.83,1.83,0,0,0-.3.54c-.12.31-.26.69-.41,1.16s-.32,1-.49,1.57l-.48,1.77c-.15.61-.3,1.21-.42,1.8s-.23,1.13-.31,1.62l-.69,0c-.37,0-.79,0-1.29,0s-1,0-1.58,0a13.18,13.18,0,0,0-1.6.15c.4-1.18.75-2.28,1.07-3.31s.58-1.92.79-2.69.38-1.39.49-1.86a2.51,2.51,0,0,0,.11-.79c0-.08-.13-.12-.29-.14a5.44,5.44,0,0,0-.59,0c-.23,0-.49,0-.78.08l-.9.12c0-.11.12-.33.24-.65s.23-.7.35-1.12l.36-1.28A7.92,7.92,0,0,0,10.51.43c.9,0,1.88.06,3,.07.91,0,2,0,3.18,0S19.15.44,20.54.38Z"/><path class="cls-1" d="M31.84.35c-.13.31-.27.68-.41,1.09s-.25.78-.4,1.27-.28,1.07-.41,1.71l-1.36-.07H28l-1,0a3.23,3.23,0,0,0-.49.06s0,0,0,0a.62.62,0,0,0-.08.12.53.53,0,0,0,0,.17.43.43,0,0,0,0,.19c0,.07.13.12.3.14a4,4,0,0,0,.74,0c.32,0,.74,0,1.24-.07l1.82-.12c-.14.31-.27.66-.4,1a11.8,11.8,0,0,0-.35,1.16c-.11.44-.21.92-.3,1.43-.41,0-.84-.07-1.27-.07s-.82,0-1.19,0l-1,0-.62.07a.25.25,0,0,0-.2.11.46.46,0,0,0-.05.2,1.12,1.12,0,0,0,.05.27,6.21,6.21,0,0,0,1,.05c.44,0,.88,0,1.32-.05l1.21-.08.7,0c-.15.38-.29.79-.43,1.22s-.25.8-.38,1.29a11.28,11.28,0,0,0-.33,1.54q-1,0-2.07-.06l-2,0c-.65,0-1.28,0-1.87,0l-1.56,0-1.13,0H19.1c.47-1.44.92-2.9,1.35-4.37l.57-2c.2-.7.39-1.4.58-2.12l.54-2.14c.17-.72.32-1.41.46-2.06.78,0,1.66.07,2.64.08s1.81,0,2.93,0S30.52.41,31.84.35Z"/><path class="cls-1" d="M49,.33c-.16.39-.35.9-.57,1.52s-.46,1.33-.7,2.09-.5,1.58-.75,2.42-.48,1.68-.7,2.5-.4,1.6-.57,2.34-.29,1.38-.36,1.93c-.64-.05-1.25-.08-1.82-.09s-1.06,0-1.48,0l-1.35.08c.14-.41.28-.87.41-1.38s.25-1,.33-1.44a6.85,6.85,0,0,0,.15-1.11c0-.29,0-.43-.12-.41s-.24.2-.45.52-.42.72-.65,1.17-.47.92-.7,1.42-.43.94-.59,1.31l-.55,0-.66,0c-.27,0-.58,0-.95,0,0-.16,0-.39,0-.69s0-.61,0-.94,0-.67,0-1,0-.65-.08-.93A3.41,3.41,0,0,0,36.73,9c0-.16-.12-.22-.21-.19s-.15.17-.26.44a9.11,9.11,0,0,0-.34,1c-.11.42-.21.88-.3,1.39a9.85,9.85,0,0,0-.17,1.5l-1.18-.06c-.39,0-.89,0-1.49,0s-1.3,0-2.11.08q.76-2.29,1.42-4.59c.19-.66.38-1.34.58-2.05s.37-1.42.54-2.13.33-1.42.48-2.11S34,1,34,.35l1.88,0c.56,0,1.19,0,1.88,0s1.4,0,2.11-.09c0,.15,0,.39-.06.71s-.05.69-.07,1.08,0,.79,0,1.21,0,.8,0,1.14a4.3,4.3,0,0,0,.09.84c0,.22.12.32.22.31s.2-.13.34-.34a9.32,9.32,0,0,0,.46-.83l.53-1.12.53-1.19L42.37,1c.13-.32.23-.57.29-.74.86.06,1.67.1,2.43.11h2C47.78.39,48.41.37,49,.33Z"/><path class="cls-1" d="M67.24,1.48a1.76,1.76,0,0,1,.48.81,3.75,3.75,0,0,1,.13,1,6.38,6.38,0,0,1-.11,1.2c-.07.42-.16.83-.27,1.25s-.22.81-.33,1.19-.22.72-.31,1a14.23,14.23,0,0,1-.5,1.43,6.66,6.66,0,0,1-.68,1.33,6,6,0,0,1-1,1.13,4.37,4.37,0,0,1-1.3.82,9.35,9.35,0,0,1-2.89.75,9.62,9.62,0,0,1-2.85-.15,3.48,3.48,0,0,1-1.49-.67,2.83,2.83,0,0,1-.81-1.08,3.63,3.63,0,0,1-.26-1.37,7.84,7.84,0,0,1,.13-1.51c0-.15.1-.44.21-.88s.23-.92.38-1.47.34-1.1.54-1.66A10.23,10.23,0,0,1,57,3.21,5.26,5.26,0,0,1,58,2a6.71,6.71,0,0,1,1.32-1A8.54,8.54,0,0,1,60.84.35a6.76,6.76,0,0,1,1.63-.3,12.24,12.24,0,0,1,1.47,0,6.17,6.17,0,0,1,1.25.19,4.46,4.46,0,0,1,1.07.47A5.31,5.31,0,0,1,67.24,1.48Zm-4.53,3.4A1.06,1.06,0,0,0,62.65,4a.53.53,0,0,0-.5-.21.77.77,0,0,0-.57.42,8,8,0,0,0-.53,1.06c-.15.39-.28.82-.41,1.27s-.22.89-.29,1.29a9.8,9.8,0,0,0-.12,1c0,.29,0,.46.07.51a.71.71,0,0,0,.34.16.78.78,0,0,0,.34,0,1.11,1.11,0,0,0,.31-.15.59.59,0,0,0,.2-.22,2.71,2.71,0,0,0,.18-.44c.07-.2.15-.44.23-.7s.16-.56.24-.86.16-.61.23-.9.14-.55.2-.8S62.68,5,62.71,4.88Z"/><path class="cls-1" d="M80.55,2.41a4.26,4.26,0,0,1,0,1.14,5.93,5.93,0,0,1-.27,1.29,6,6,0,0,1-.55,1.21A3.49,3.49,0,0,1,79,7a6.18,6.18,0,0,1-1,.67,9.59,9.59,0,0,1-1.09.49c-.37.14-.75.26-1.13.38l-1.11.34-.18.07-.27.11-.24.12c-.08,0-.12.07-.12.1s.1.1.29.13a6.4,6.4,0,0,0,.76.07c.31,0,.66,0,1,0L77,9.39c.38,0,.74-.07,1.08-.12A7.84,7.84,0,0,0,79,9.13c-.16.38-.31.79-.45,1.22s-.25.8-.38,1.29a15.37,15.37,0,0,0-.33,1.54q-1.11,0-2.28-.06l-2.29,0H71.09l-1.77,0-1.26,0h-.59a14.92,14.92,0,0,1,.26-1.56c.12-.49.24-.94.37-1.36s.28-.79.42-1.11a5.78,5.78,0,0,1,.41-.77,5,5,0,0,1,.77-.89,5.41,5.41,0,0,1,1-.7,6.36,6.36,0,0,1,1.08-.53,5.24,5.24,0,0,1,1.11-.34l.94-.2a5.19,5.19,0,0,0,.92-.28A3.08,3.08,0,0,0,75.44,5a1.17,1.17,0,0,0,.44-.61.48.48,0,0,0-.09-.5.59.59,0,0,0-.6-.09.63.63,0,0,0-.43.27,2.29,2.29,0,0,0-.21.39,2.6,2.6,0,0,0-.17.62c-.8,0-1.5,0-2.08,0s-1.07,0-1.46,0-.83,0-1.14.08c.14-.61.29-1.14.44-1.59a5.59,5.59,0,0,1,.52-1.15,4.2,4.2,0,0,1,.69-.86,4.86,4.86,0,0,1,.94-.65,6.49,6.49,0,0,1,1.1-.46A9.67,9.67,0,0,1,74.65.14,9.53,9.53,0,0,1,76,0a7.58,7.58,0,0,1,1.27,0,5.25,5.25,0,0,1,2.31.72A2.27,2.27,0,0,1,80.55,2.41Z"/></g></g></svg>