<svg xmlns="http://www.w3.org/2000/svg" viewBox="0 0 81.18 13.49"><defs><style>.cls-1{fill:#fff;}</style></defs><title>アセット 6</title><g id="レイヤー_2" data-name="レイヤー 2"><g id="レイヤー_1-2" data-name="レイヤー 1"><path class="cls-1" d="M8.38.3C8.11,1,7.8,2,7.44,3.16c-.3,1-.66,2.35-1.07,4S5.48,10.83,5,13.23c-.53-.05-1.07-.08-1.64-.1s-1,0-1.6,0a16.41,16.41,0,0,0-1.73.1C.43,11.9.85,10.53,1.27,9.1c.18-.62.36-1.27.55-2S2.18,5.72,2.36,5s.36-1.5.52-2.27.3-1.53.43-2.28c.48,0,1,0,1.54,0l1.62,0C7.08.43,7.71.38,8.38.3Z"/><path class="cls-1" d="M20.54.37c-.14.33-.27.71-.41,1.14s-.26.8-.41,1.31-.3,1.07-.45,1.68a13.9,13.9,0,0,0-1.39-.07,1.52,1.52,0,0,0-.89.2,1.6,1.6,0,0,0-.3.53c-.12.31-.26.7-.41,1.16s-.32,1-.49,1.57-.32,1.17-.48,1.78-.3,1.2-.42,1.79-.23,1.13-.31,1.62l-.69,0L12.6,13c-.49,0-1,0-1.58,0a15.54,15.54,0,0,0-1.6.15c.4-1.18.75-2.28,1.07-3.3s.58-1.92.79-2.7.38-1.39.49-1.86a2.49,2.49,0,0,0,.11-.79c0-.07-.13-.12-.29-.13a3.7,3.7,0,0,0-.59,0c-.23,0-.49,0-.78.07l-.9.12c0-.11.12-.32.24-.65s.23-.7.35-1.12.24-.84.36-1.28A7.65,7.65,0,0,0,10.51.41c.9,0,1.88.06,3,.07.91,0,2,0,3.18,0S19.15.42,20.54.37Z"/><path class="cls-1" d="M31.84.33c-.13.32-.27.68-.41,1.1s-.25.77-.4,1.27-.28,1.06-.41,1.7c-.45,0-.9-.05-1.36-.06L28,4.32c-.39,0-.71,0-1,0a2.55,2.55,0,0,0-.49.05s0,0,0,0a.49.49,0,0,0-.08.13.47.47,0,0,0,0,.17.37.37,0,0,0,0,.18q0,.12.3.15a5.49,5.49,0,0,0,.74,0c.32,0,.74,0,1.24-.07l1.82-.12c-.14.31-.27.66-.4,1s-.24.72-.35,1.16-.21.92-.3,1.43c-.41,0-.84-.06-1.27-.07H27l-1,0-.62.06a.25.25,0,0,0-.2.11.49.49,0,0,0-.05.2,1.12,1.12,0,0,0,.05.27,7.24,7.24,0,0,0,1,.06l1.32-.05,1.21-.08.7-.06c-.15.39-.29.79-.43,1.22s-.25.81-.38,1.29a11.61,11.61,0,0,0-.33,1.54q-1,0-2.07-.06l-2,0H22.34l-1.56,0-1.13,0-.55,0q.7-2.18,1.35-4.38l.57-2c.2-.7.39-1.4.58-2.11l.54-2.15c.17-.72.32-1.4.46-2.06.78,0,1.66.07,2.64.08s1.81,0,2.93,0S30.52.4,31.84.33Z"/><path class="cls-1" d="M49,.32c-.16.38-.35.89-.57,1.52s-.46,1.32-.7,2.09S47.23,5.5,47,6.35s-.48,1.68-.7,2.5-.4,1.6-.57,2.34-.29,1.38-.36,1.92c-.64,0-1.25-.08-1.82-.09s-1.06,0-1.48,0l-1.35.08c.14-.4.28-.86.41-1.38s.25-1,.33-1.44a6.85,6.85,0,0,0,.15-1.11c0-.29,0-.43-.12-.41s-.24.2-.45.53-.42.71-.65,1.16-.47.93-.7,1.42-.43.94-.59,1.31l-.55,0h-.66l-.95,0c0-.16,0-.39,0-.68s0-.61,0-.94,0-.67,0-1,0-.65-.08-.92A3.24,3.24,0,0,0,36.73,9c0-.16-.12-.23-.21-.2s-.15.17-.26.45a8.27,8.27,0,0,0-.34,1c-.11.42-.21.88-.3,1.39a9.83,9.83,0,0,0-.17,1.51c-.33,0-.72-.05-1.18-.07s-.89,0-1.49,0-1.3,0-2.11.09q.76-2.31,1.42-4.6c.19-.65.38-1.34.58-2s.37-1.42.54-2.14.33-1.42.48-2.11S34,.93,34,.33l1.88,0c.56,0,1.19,0,1.88,0s1.4,0,2.11-.1c0,.15,0,.39-.06.71s-.05.69-.07,1.08,0,.8,0,1.22,0,.79,0,1.14a4.28,4.28,0,0,0,.09.83c0,.22.12.32.22.31s.2-.12.34-.34a8.08,8.08,0,0,0,.46-.83l.53-1.11.53-1.19c.16-.39.31-.75.45-1.07s.23-.58.29-.75c.86.06,1.67.1,2.43.11s1.43,0,2,0S48.41.35,49,.32Z"/><path class="cls-1" d="M67.24,1.46a1.81,1.81,0,0,1,.48.81,3.87,3.87,0,0,1,.13,1,6.2,6.2,0,0,1-.11,1.19c-.07.42-.16.84-.27,1.25s-.22.81-.33,1.19-.22.73-.31,1c-.14.48-.31,1-.5,1.43a6.86,6.86,0,0,1-.68,1.32,5.7,5.7,0,0,1-1,1.13,4.39,4.39,0,0,1-1.3.83,9.66,9.66,0,0,1-5.74.59,3.48,3.48,0,0,1-1.49-.67,2.75,2.75,0,0,1-.81-1.08,3.59,3.59,0,0,1-.26-1.37,7.9,7.9,0,0,1,.13-1.51c0-.15.1-.44.21-.87s.23-.93.38-1.48.34-1.1.54-1.66A10.07,10.07,0,0,1,57,3.2,5.31,5.31,0,0,1,58,2a6.71,6.71,0,0,1,1.32-1A9.3,9.3,0,0,1,60.84.33,6.76,6.76,0,0,1,62.47,0c.53,0,1,0,1.47,0a5.54,5.54,0,0,1,1.25.2,4.07,4.07,0,0,1,1.07.46A5.76,5.76,0,0,1,67.24,1.46ZM62.71,4.87A1.05,1.05,0,0,0,62.65,4a.51.51,0,0,0-.5-.22.76.76,0,0,0-.57.43,7.22,7.22,0,0,0-.53,1c-.15.4-.28.82-.41,1.28s-.22.88-.29,1.28a9.8,9.8,0,0,0-.12,1c0,.29,0,.46.07.51a.84.84,0,0,0,.34.17.78.78,0,0,0,.34,0,.89.89,0,0,0,.31-.15.53.53,0,0,0,.2-.22,2.93,2.93,0,0,0,.18-.43c.07-.21.15-.44.23-.71s.16-.56.24-.86.16-.6.23-.89.14-.56.2-.81S62.68,5,62.71,4.87Z"/><path class="cls-1" d="M81.18.45q-.39,1-.75,2.25c-.22.67-.44,1.44-.68,2.31s-.46,1.76-.66,2.69l.45,0,.79,0a11,11,0,0,0-.42,1.12c-.12.34-.23.75-.35,1.21s-.22,1-.31,1.46l-.54-.05H78.3c0,.24-.08.5-.12.76s-.1.6-.15,1l-1.48,0H74.94c-.61,0-1.27,0-2,.08a11.29,11.29,0,0,0,.52-1.1c.12-.32.13-.5,0-.56a3.08,3.08,0,0,0-.67-.15,7.46,7.46,0,0,0-1-.06c-.38,0-.77,0-1.19,0l-1.2.06-1.09.06-.82.07c0-.1.1-.3.19-.61l.3-1c.12-.39.22-.78.31-1.18a9.34,9.34,0,0,0,.18-1c.48-.6,1-1.19,1.45-1.77s1-1.17,1.46-1.76.92-1.2,1.35-1.83A14.82,14.82,0,0,0,73.88.41c.82.06,1.64.1,2.48.12s1.5,0,2.36,0S80.4.5,81.18.45ZM75.59,4.92s-.1.06-.2.17l-.34.45-.42.59c-.14.21-.28.41-.39.59S74,7.07,74,7.2l-.12.21.15,0h.3l.33,0a.48.48,0,0,0,.27-.12c.08,0,.15-.21.22-.49s.13-.56.2-.86a2.65,2.65,0,0,1,.12-.37c0-.13.09-.24.13-.33s.06-.18.07-.24S75.62,4.92,75.59,4.92Z"/></g></g></svg>