<svg xmlns="http://www.w3.org/2000/svg" viewBox="0 0 80.9 13.54"><defs><style>.cls-1{fill:#fff;}</style></defs><title>アセット 5</title><g id="レイヤー_2" data-name="レイヤー 2"><g id="レイヤー_1-2" data-name="レイヤー 1"><path class="cls-1" d="M8.38.35C8.11,1.06,7.8,2,7.44,3.21c-.3,1-.66,2.35-1.07,4S5.48,10.88,5,13.28c-.53,0-1.07-.08-1.64-.1s-1,0-1.6,0a16.41,16.41,0,0,0-1.73.1c.43-1.3.85-2.68,1.27-4.11.18-.61.36-1.27.55-2S2.18,5.77,2.36,5s.36-1.49.52-2.27.3-1.53.43-2.28c.48,0,1,.05,1.54.05L6.47.5C7.08.48,7.71.43,8.38.35Z"/><path class="cls-1" d="M20.54.42c-.14.33-.27.71-.41,1.14s-.26.8-.41,1.31-.3,1.07-.45,1.68c-.5,0-1-.07-1.39-.07a1.52,1.52,0,0,0-.89.2,1.57,1.57,0,0,0-.3.54c-.12.3-.26.69-.41,1.15s-.32,1-.49,1.57-.32,1.17-.48,1.78-.3,1.2-.42,1.79-.23,1.13-.31,1.62l-.69,0-1.29,0c-.49,0-1,0-1.58,0s-1.1.08-1.6.15c.4-1.18.75-2.28,1.07-3.3s.58-1.92.79-2.69.38-1.4.49-1.87a2.49,2.49,0,0,0,.11-.79c0-.07-.13-.12-.29-.13a3.7,3.7,0,0,0-.59,0c-.23,0-.49,0-.78.07l-.9.12c0-.11.12-.32.24-.65s.23-.7.35-1.12.24-.84.36-1.27A8.2,8.2,0,0,0,10.51.47c.9,0,1.88.05,3,.06.91,0,2,0,3.18,0S19.15.47,20.54.42Z"/><path class="cls-1" d="M31.84.39c-.13.31-.27.67-.41,1.09s-.25.78-.4,1.27-.28,1.06-.41,1.7c-.45,0-.9,0-1.36-.06L28,4.37c-.39,0-.71,0-1,0a2.55,2.55,0,0,0-.49,0s0,0,0,0a.74.74,0,0,0-.08.13.47.47,0,0,0,0,.17.37.37,0,0,0,0,.18q0,.12.3.15a5.49,5.49,0,0,0,.74,0c.32,0,.74,0,1.24-.07L30.48,5a11.11,11.11,0,0,0-.4,1,11.54,11.54,0,0,0-.35,1.15c-.11.44-.21.92-.3,1.43-.41,0-.84-.06-1.27-.07H27l-1,.05-.62.06a.23.23,0,0,0-.2.12.46.46,0,0,0-.05.2,1.05,1.05,0,0,0,.05.26,7.24,7.24,0,0,0,1,.06c.44,0,.88,0,1.32,0l1.21-.08.7-.06c-.15.39-.29.8-.43,1.22s-.25.81-.38,1.29a11.61,11.61,0,0,0-.33,1.54q-1,0-2.07-.06l-2,0H22.34l-1.56,0-1.13,0-.55,0c.47-1.45.92-2.91,1.35-4.37l.57-2c.2-.7.39-1.4.58-2.11l.54-2.15c.17-.72.32-1.4.46-2.06.78,0,1.66.07,2.64.08s1.81,0,2.93,0S30.52.45,31.84.39Z"/><path class="cls-1" d="M49,.37c-.16.38-.35.89-.57,1.52S48,3.21,47.73,4,47.23,5.55,47,6.4s-.48,1.68-.7,2.5-.4,1.6-.57,2.34-.29,1.38-.36,1.93c-.64-.06-1.25-.09-1.82-.1s-1.06,0-1.48,0-.94.05-1.35.09c.14-.41.28-.87.41-1.39s.25-1,.33-1.44a6.89,6.89,0,0,0,.15-1.1c0-.3,0-.44-.12-.41s-.24.19-.45.52-.42.71-.65,1.16-.47.93-.7,1.43-.43.93-.59,1.31l-.55,0h-.66l-.95,0c0-.16,0-.39,0-.68s0-.61,0-.94,0-.67,0-1,0-.65-.08-.92A3.41,3.41,0,0,0,36.73,9c0-.16-.12-.23-.21-.19s-.15.16-.26.44a8.87,8.87,0,0,0-.34,1c-.11.42-.21.89-.3,1.39a10,10,0,0,0-.17,1.51l-1.18-.07c-.39,0-.89,0-1.49,0s-1.3,0-2.11.09c.51-1.53,1-3.07,1.42-4.6.19-.65.38-1.33.58-2s.37-1.42.54-2.14.33-1.42.48-2.11S34,1,34,.39l1.88,0c.56,0,1.19,0,1.88,0s1.4,0,2.11-.1q0,.22-.06.72c0,.32-.05.68-.07,1.07s0,.8,0,1.22,0,.8,0,1.14a4.28,4.28,0,0,0,.09.83c0,.22.12.32.22.31s.2-.12.34-.34a8.08,8.08,0,0,0,.46-.83l.53-1.11.53-1.19.45-1.07c.13-.33.23-.58.29-.75.86.07,1.67.1,2.43.11s1.43,0,2,0S48.41.4,49,.37Z"/><path class="cls-1" d="M67.24,1.51a1.86,1.86,0,0,1,.48.81,3.87,3.87,0,0,1,.13,1.05,6.38,6.38,0,0,1-.11,1.2c-.07.41-.16.83-.27,1.24s-.22.81-.33,1.19-.22.73-.31,1c-.14.48-.31,1-.5,1.43a6.86,6.86,0,0,1-.68,1.32,5.7,5.7,0,0,1-1,1.13,4.39,4.39,0,0,1-1.3.83,10,10,0,0,1-2.89.75,9.29,9.29,0,0,1-2.85-.16,3.48,3.48,0,0,1-1.49-.67,2.75,2.75,0,0,1-.81-1.08,3.59,3.59,0,0,1-.26-1.37,7.9,7.9,0,0,1,.13-1.51c0-.15.1-.44.21-.87s.23-.93.38-1.47.34-1.11.54-1.67A10.07,10.07,0,0,1,57,3.25,5.06,5.06,0,0,1,58,2a6.75,6.75,0,0,1,1.32-1A8.5,8.5,0,0,1,60.84.39,6.33,6.33,0,0,1,62.47.08c.53,0,1,0,1.47,0a6.16,6.16,0,0,1,1.25.2,4.07,4.07,0,0,1,1.07.46A5.76,5.76,0,0,1,67.24,1.51ZM62.71,4.92a1.05,1.05,0,0,0-.06-.86.51.51,0,0,0-.5-.22.76.76,0,0,0-.57.43,7.22,7.22,0,0,0-.53,1.05c-.15.4-.28.82-.41,1.28s-.22.88-.29,1.28a10.1,10.1,0,0,0-.12,1c0,.29,0,.46.07.52a.81.81,0,0,0,.34.16.78.78,0,0,0,.34,0,1.09,1.09,0,0,0,.31-.14.62.62,0,0,0,.2-.23,2.93,2.93,0,0,0,.18-.43c.07-.21.15-.44.23-.71s.16-.56.24-.86.16-.6.23-.89.14-.56.2-.81S62.68,5.07,62.71,4.92Z"/><path class="cls-1" d="M80.76,3.92a4.31,4.31,0,0,1-.82,1.57,3.58,3.58,0,0,1-1.52,1.12,1.77,1.77,0,0,1,.66.7,2.41,2.41,0,0,1,.29.94,3.59,3.59,0,0,1-.08,1.07,5.05,5.05,0,0,1-.39,1.13,3.73,3.73,0,0,1-1.07,1.28,6.69,6.69,0,0,1-1.54.88,8.52,8.52,0,0,1-1.7.51,9.39,9.39,0,0,1-1.58.16,13.82,13.82,0,0,1-2.38-.18A3.43,3.43,0,0,1,69,12.42,2.26,2.26,0,0,1,68.26,11a6.22,6.22,0,0,1,.27-2.42c.45.05.93.08,1.45.12s1,0,1.55,0,1.21,0,1.89-.09a1.76,1.76,0,0,0-.14.63.41.41,0,0,0,.09.29.27.27,0,0,0,.19.08h.19a1,1,0,0,0,.62-.19.92.92,0,0,0,.35-.66c0-.24,0-.38-.23-.43a5.43,5.43,0,0,0-.82-.12l-.8-.05h-.74l-.75,0a14,14,0,0,0,.54-1.58,14.33,14.33,0,0,0,.36-1.71l.69,0,.66,0,.69,0,.46,0a1.55,1.55,0,0,0,.8-.23.87.87,0,0,0,.36-.42.44.44,0,0,0,0-.42.47.47,0,0,0-.43-.2.86.86,0,0,0-.73.29,1.45,1.45,0,0,0-.3.61c-.65-.06-1.27-.09-1.85-.09s-1.09,0-1.54,0l-1.45.11a8,8,0,0,1,1-2.39A4.28,4.28,0,0,1,72.07.71a5.57,5.57,0,0,1,2-.58A21.84,21.84,0,0,1,76.63,0,7,7,0,0,1,79,.34a3.24,3.24,0,0,1,1.35.91,2.28,2.28,0,0,1,.52,1.26A3.76,3.76,0,0,1,80.76,3.92Z"/></g></g></svg>