<svg xmlns="http://www.w3.org/2000/svg" viewBox="0 0 110.47 99.28"><defs><style>.cls-1{fill:#040000;}.cls-2,.cls-4,.cls-5,.cls-6,.cls-7,.cls-8{fill:none;}.cls-2,.cls-4,.cls-5,.cls-7,.cls-8{stroke:#231815;}.cls-2,.cls-6,.cls-7{stroke-linecap:round;stroke-linejoin:round;}.cls-2{stroke-width:0.69px;}.cls-3{fill:#231815;}.cls-4,.cls-5,.cls-8{stroke-miterlimit:10;}.cls-4{stroke-width:0.35px;}.cls-5,.cls-7{stroke-width:0.38px;}.cls-6{stroke:#050000;stroke-width:0.36px;}.cls-8{stroke-width:0.36px;}</style></defs><title>アセット 1</title><g id="レイヤー_2" data-name="レイヤー 2"><g id="レイヤー_1-2" data-name="レイヤー 1"><path class="cls-1" d="M41.72,97.88V94.81L39.8,99.16h-.16l-1.92-4.35v4.35h-.16V94.35h.67l1.77,4,1.75-4h.67v4.81h-.7Z"/><path class="cls-1" d="M45.74,97.5v1.73h-.42v-.42a2.6,2.6,0,0,1-.54.31,1,1,0,0,1-.43.11.64.64,0,0,1-.55-.57.53.53,0,0,1,.24-.48,3.6,3.6,0,0,1,.82-.44l.46-.19v-.12a1.48,1.48,0,0,0,0-.36.42.42,0,0,0-.18-.2.58.58,0,0,0-.35-.09.84.84,0,0,0-.51.14l-.1-.1a1.25,1.25,0,0,1,.67-.17,1.14,1.14,0,0,1,.58.12.61.61,0,0,1,.28.27A1.3,1.3,0,0,1,45.74,97.5Zm-.42.19-.33.13c-.5.21-.76.47-.76.78a.45.45,0,0,0,.1.3.32.32,0,0,0,.26.12.78.78,0,0,0,.32-.1,2.38,2.38,0,0,0,.41-.27Z"/><path class="cls-1" d="M49.56,95.14v4.13h-.42v-.44a.87.87,0,0,1-.33.33,1,1,0,0,1-.47.11,1.17,1.17,0,0,1-.88-.37,1.25,1.25,0,0,1-.31-.91,1.37,1.37,0,0,1,.3-.95,1.1,1.1,0,0,1,.85-.36,1.06,1.06,0,0,1,.43.08,1.34,1.34,0,0,1,.41.29V95.14h.06s0,0,0,0Zm-.42,2.07a1.67,1.67,0,0,0-.38-.29.89.89,0,0,0-.39-.09.66.66,0,0,0-.56.28,1.36,1.36,0,0,0-.21.82,1.5,1.5,0,0,0,.23.89.7.7,0,0,0,.6.31.66.66,0,0,0,.43-.15.71.71,0,0,0,.28-.3Z"/><path class="cls-1" d="M53,98.86a.67.67,0,0,1-.26.24,1.16,1.16,0,0,1-.6.17,1.19,1.19,0,0,1-.58-.15,1.24,1.24,0,0,1-.44-.44,1.21,1.21,0,0,1-.18-.68,1.4,1.4,0,0,1,.34-1,1.06,1.06,0,0,1,.83-.37.92.92,0,0,1,.73.28.85.85,0,0,1,.24.63H51.44c0,.11,0,.2,0,.25a1.91,1.91,0,0,0,.2,1,.67.67,0,0,0,.59.31.74.74,0,0,0,.68-.35Zm-1.55-1.39h1.28a.67.67,0,0,0-.64-.67C51.73,96.8,51.52,97,51.45,97.47Z"/><path class="cls-1" d="M56.42,97.05a1.09,1.09,0,0,1,.85-.37,1.12,1.12,0,0,1,.86.37,1.42,1.42,0,0,1,0,1.87,1.15,1.15,0,0,1-.86.35,1.19,1.19,0,0,1-.85-.35,1.27,1.27,0,0,1-.35-1A1.24,1.24,0,0,1,56.42,97.05Zm.3,1.83a.72.72,0,0,0,1.11,0,1.59,1.59,0,0,0,.22-.9,1.64,1.64,0,0,0-.22-.9.65.65,0,0,0-.56-.27.62.62,0,0,0-.55.27,1.56,1.56,0,0,0-.22.9A1.51,1.51,0,0,0,56.72,98.88Z"/><path class="cls-1" d="M61.65,95.21l-.12.12a.46.46,0,0,0-.36-.16.43.43,0,0,0-.33.14.49.49,0,0,0-.17.34,7.66,7.66,0,0,0,0,.87v.19h.51v.13h-.51v2.32h-.43V96.84h-.46v-.13h.46v-.23a4.24,4.24,0,0,1,0-.57,1.06,1.06,0,0,1,.17-.42,1,1,0,0,1,.35-.34.88.88,0,0,1,.5-.11A.51.51,0,0,1,61.65,95.21Z"/><path class="cls-1" d="M64.23,98.91a0,0,0,0,1,0,0h0Zm1.41-.2a.66.66,0,0,1-.3.46.73.73,0,0,1-.55.09.78.78,0,0,1-.52-.38l.11-.06a.61.61,0,0,0,.43.32.44.44,0,0,0,.35-.07.46.46,0,0,0,.17-.27.47.47,0,0,0-.06-.33,1.87,1.87,0,0,0-.4-.37,1.66,1.66,0,0,1-.44-.45.55.55,0,0,1-.07-.44.72.72,0,0,1,.25-.41.57.57,0,0,1,.51-.12.65.65,0,0,1,.44.32l-.11.08a.46.46,0,0,0-.35-.26.36.36,0,0,0-.29,0,.42.42,0,0,0-.17.23.46.46,0,0,0,.07.3,2.57,2.57,0,0,0,.39.34,1.28,1.28,0,0,1,.51.55A.92.92,0,0,1,65.64,98.71Z"/><path class="cls-1" d="M67.11,95.72a.33.33,0,0,1-.09-.23.31.31,0,0,1,.09-.22.29.29,0,0,1,.44,0,.31.31,0,0,1,.09.22.33.33,0,0,1-.09.23.31.31,0,0,1-.44,0Zm.37.89h.06v2.55h-.43V96.61Z"/><path class="cls-1" d="M69.44,99.16H69V95h.43v4.12Z"/><path class="cls-1" d="M71.66,97.63,73,99.16h-.54l-1.11-1.29-.12.1v1.19h-.44V95.39h.44V97.8l1.49-1.09h.21Z"/><path class="cls-2" d="M.35,91.61c16.92-16.49,23.41-21.15,24.6-20s-3.11,8.6-2.11,9.23c.54.34,2.05-1.69,6.05-4.73,3.57-2.73,4.6-2.81,5.18-2.47,1.14.65.39,2.83,1.49,3.7.82.66,2.69.55,7.19-2.73a1.5,1.5,0,0,1,.58.37c.17.18.27.39.47,1.16.07.29.16.66.24,1.1l2.08-1.1"/><path class="cls-2" d="M65.82,75.73c.94-.48,1.46-1.15,1.33-1.56s-1.12-.53-1.6-.5a3,3,0,0,0-2.4,1.61c-.13.25-.59,1.14-.31,1.5s1.57.26,6-2.35l1.46.55"/><path class="cls-2" d="M89.22,78.2c1-.72,2.4-1.71,4.14-2.83C97,73,97.52,73.1,97.7,73.28c.44.41-.11,2-.88,2.91-1.45,1.79-4,1.94-4.12,1.63s.93-.85,1.41-1.11c2.22-1.17,4.6-.49,6.15-.08,2.43.66,5.57,1.4,9.87,2.23"/><circle class="cls-3" cx="53.69" cy="79.28" r="0.49"/><circle class="cls-3" cx="79.8" cy="79.69" r="0.53"/><path class="cls-4" d="M60.29,16.54c-.43-.17-.35-1.29-.32-1.78.14-2,1-2.29,1.17-3.92.19-1.8-.77-2.38-.19-3.79.09-.24.5-1.25,1.38-1.43a2.12,2.12,0,0,1,2.08,1.11c.33.58.23,1.12-.67,4.16-.74,2.51-1,3.21-1.59,4.06C62,15.17,60.86,16.77,60.29,16.54Z"/><path class="cls-4" d="M54.31,19.82c-1-.64-1.53-1-1.76-1.68-.35-1,.26-1.71-.32-2.56a.76.76,0,0,1-.21-.44c0-.41.48-.75,1.24-1.17a11.31,11.31,0,0,1,2.38-1.14,9.8,9.8,0,0,1,3.55-.36c1.54.12,3.17.23,4.42,1.42a7,7,0,0,1,1.52,2.52,16,16,0,0,1,.74,2.39c.57,2.12.46,2.44.32,2.64s-.47.28-1.85.45a20,20,0,0,1-3.85.35A8.33,8.33,0,0,1,58.66,22a18.89,18.89,0,0,1-2.89-1.37A13.85,13.85,0,0,1,54.31,19.82Z"/><path class="cls-4" d="M64.19,11.77a3.9,3.9,0,0,1,2.58-1,3.64,3.64,0,0,1,1.66.46c1.07.56,1,1.13,2.32,2.27.8.69,1.1.72,1.3,1.21a2.52,2.52,0,0,1-.28,2,7.05,7.05,0,0,1-3.34,3.92,2.56,2.56,0,0,1-1.39.43,1.76,1.76,0,0,1-.75-.27"/><path class="cls-4" d="M64.58,7.5a5.08,5.08,0,0,1,1.23-1.56,11.38,11.38,0,0,1,1.28-.85,7,7,0,0,1,1-.59,3.35,3.35,0,0,1,1.69-.12c.54.08,1.61.24,2,1,.25.45,0,.69.39,1.42a5.44,5.44,0,0,0,.56.86,7,7,0,0,1,.86,1.71,4.45,4.45,0,0,1,0,2.65,4.72,4.72,0,0,1-1.24,1.78,7.28,7.28,0,0,1-.59.53"/><path class="cls-4" d="M61.17,10.39a2.85,2.85,0,0,1-1.3-1.18A11.11,11.11,0,0,1,59.46,8a15.47,15.47,0,0,0-.87-1.66A5.53,5.53,0,0,1,58,4.92c0-.37,0-.83,1.51-2.61C61.14.31,61.63.17,62,.17s.2.09,1.23.33a4,4,0,0,0,1.6.19c.5-.1.64-.32,1-.25.07,0,.3.06.73.51a2.81,2.81,0,0,1,1,1.7,3.28,3.28,0,0,1-.16,1,3.86,3.86,0,0,1-.56,1.38,2.61,2.61,0,0,1-.29.36"/><path class="cls-5" d="M58.94,12.48c-.62-.79-.81-1.68-1.4-2.34a3.63,3.63,0,0,0-1.3-.93A3.8,3.8,0,0,0,55.15,9a3.85,3.85,0,0,0-1.91.11,3.19,3.19,0,0,0-1,.62"/><path class="cls-6" d="M58.05,51.8c-2.54-5.39-9.63-21.27-9-33.37.32-6.4,2.61-8.31,3.39-8.87,2.6-1.87,5.78-1.37,7.23-1.05"/><path class="cls-7" d="M53.51,48c-2.67-3-3.83,2.3-7.89-1.72s-7.74-3.16-9-2.79a7.49,7.49,0,0,1,4,2.68c1.58,2.14,4.06,7.65,6,7.34s3.54-1.31,4.88-.38,4.16.94,6.58-1.29"/><path class="cls-7" d="M38.75,43.15a5.59,5.59,0,0,0,1-.14,5.71,5.71,0,0,0,1.82-.76,1.36,1.36,0,0,1,.36-.12,2.28,2.28,0,0,1,1,.19l.57.19a4.79,4.79,0,0,0,.89.15,6.7,6.7,0,0,1,1.65.44c1.74.58,3.4.15,5.36,1a9,9,0,0,1,3.57,3,15.46,15.46,0,0,1,2,2.67"/><path class="cls-8" d="M58,50.22a11.51,11.51,0,0,1,1.16-3,10.28,10.28,0,0,1,1.93-2.46c1.13-1,1.41-.79,2.56-1.88s.9-1.31,1.7-1.87a3.61,3.61,0,0,1,3.09-.59,4.07,4.07,0,0,1,1.63,1,2.25,2.25,0,0,0-1.4.69A3.37,3.37,0,0,0,68,43.51a11.63,11.63,0,0,1-2.17,3.85,10.74,10.74,0,0,1-3.32,2.37c-1,.57-2.4,1.32-4.1,2.07,0-.27.14-.67.27-1.13A5.41,5.41,0,0,1,59.35,49a3.39,3.39,0,0,1,.79-.77c.52-.41.78-.45,1.29-.88a4.54,4.54,0,0,0,.58-.56"/></g></g></svg>