<svg xmlns="http://www.w3.org/2000/svg" viewBox="0 0 101.87 26.36"><defs><style>.cls-1{fill:#fff100;}.cls-2{fill:#231815;}</style></defs><title>アセット 8</title><g id="レイヤー_2" data-name="レイヤー 2"><g id="レイヤー_1-2" data-name="レイヤー 1"><rect class="cls-1" width="101.87" height="26.36"/><path class="cls-2" d="M44.25,7.08c-.39,1.3-.79,2.67-1.2,4.1l-.54,2c-.19.7-.37,1.42-.56,2.17s-.37,1.5-.55,2.28-.34,1.55-.49,2.32c-.59,0-1.13-.06-1.62-.07s-1,0-1.69,0-1.31,0-2,.08c0-.29,0-.62,0-1s0-.74,0-1.12,0-.76-.06-1.13-.06-.69-.1-1a4.5,4.5,0,0,0-.13-.66c-.05-.16-.1-.23-.17-.21s-.11.12-.17.31-.11.39-.17.64-.12.5-.17.77-.1.5-.15.69-.07.43-.09.57,0,.28-.07.45-.06.35-.1.59-.1.57-.19,1H32.44l-1.61,0c-.61,0-1.25.06-1.93.11.22-.55.44-1.19.68-1.94s.46-1.53.69-2.35.44-1.66.64-2.52.39-1.66.56-2.43.3-1.48.41-2.11.19-1.14.24-1.53c.43,0,.93.06,1.51.07s1.09,0,1.81,0,1.53,0,2.45-.11c0,.17,0,.42,0,.75s0,.7,0,1.1,0,.82,0,1.25,0,.82.06,1.16a8.5,8.5,0,0,0,.13.86c.06.23.12.35.2.36s.08-.1.13-.3.1-.44.16-.72.1-.58.16-.88.11-.55.16-.74.11-.44.13-.59.06-.31.08-.48.06-.39.09-.64.09-.61.16-1.07c.55,0,1.11.06,1.69.06s1,0,1.61,0S43.73,7.14,44.25,7.08Z"/><path class="cls-2" d="M55.8,7.13c-.14.31-.28.68-.42,1.09S55.13,9,55,9.49s-.29,1.07-.42,1.71l-1.36-.07H51.94l-1,0a2.87,2.87,0,0,0-.49.06s0,0,0,.05a.63.63,0,0,0-.07.12.37.37,0,0,0,0,.17.43.43,0,0,0,0,.19c0,.07.13.12.3.14a4,4,0,0,0,.74,0l1.24-.07,1.82-.12c-.14.31-.27.66-.4,1s-.23.72-.35,1.16-.21.91-.29,1.43c-.42,0-.85-.07-1.27-.07s-.83,0-1.2,0l-1,0-.62.07a.22.22,0,0,0-.19.11.35.35,0,0,0-.05.2.78.78,0,0,0,.05.27,6,6,0,0,0,1,.05c.44,0,.88,0,1.33-.05l1.2-.08.7-.05c-.15.38-.29.79-.43,1.22s-.25.8-.38,1.29a15.37,15.37,0,0,0-.33,1.54l-2.07-.07-2,0c-.65,0-1.27,0-1.86,0l-1.57,0-1.13,0h-.55c.47-1.44.92-2.9,1.35-4.37l.57-2c.2-.7.39-1.4.58-2.12s.37-1.43.54-2.14.32-1.41.46-2.06c.79,0,1.66.07,2.64.08s1.81,0,2.93,0S54.47,7.19,55.8,7.13Z"/><path class="cls-2" d="M74.89,7.26c-.72,1.37-1.46,2.79-2.2,4.24l-1,2c-.35.7-.69,1.42-1,2.15s-.69,1.48-1,2.23-.66,1.49-1,2.22c-.48-.06-1-.1-1.51-.13l-1.51-.05A13.65,13.65,0,0,0,64,20c0-.48.07-1,.1-1.48s0-1,.06-1.42A8.16,8.16,0,0,0,64.1,16c0-.28-.11-.42-.2-.42s-.18.09-.32.26a7.78,7.78,0,0,0-.44.69c-.16.29-.33.6-.5.94s-.35.69-.51,1-.31.66-.43.95-.23.53-.31.7c-.77-.06-1.48-.1-2.11-.12s-1.19,0-1.65,0-1,0-1.45.07a13,13,0,0,0,.28-1.49c.09-.63.18-1.32.25-2.09s.15-1.57.21-2.43.12-1.69.16-2.52.07-1.62.08-2.38,0-1.41,0-2c.78.06,1.5.09,2.16.11l1.71,0q.85,0,1.53,0c-.12.47-.23,1-.33,1.54S62,9.93,62,10.41a7.94,7.94,0,0,0-.07,1.21q0,.48.18.48c.07,0,.17-.08.3-.25a6.56,6.56,0,0,0,.4-.67c.14-.28.3-.59.46-.94s.34-.7.5-1.06.33-.71.5-1,.32-.65.47-.9h.79l.83,0,1,0q0,.24-.06.69c0,.3,0,.63-.07,1s0,.72-.05,1.09,0,.71,0,1a4.42,4.42,0,0,0,.07.74c0,.19.09.28.16.27s.29-.13.43-.35a6,6,0,0,0,.49-.94c.18-.41.38-.9.6-1.49s.47-1.24.75-2q.55,0,1.32.06h1.65C73.24,7.34,74,7.31,74.89,7.26Z"/></g></g></svg>