<svg xmlns="http://www.w3.org/2000/svg" viewBox="0 0 170.08 170.08"><defs><style>.cls-1{fill:#FFFFFF}</style></defs><g id="レイヤー_2" data-name="レイヤー 2"><g id="レイヤー_1-2" data-name="レイヤー 1"><path class="cls-1" d="M11.1 62a20 20 0 017-11.49 18.57 18.57 0 0112.33-4.74q7.29 0 10.74 5.55a18.59 18.59 0 0113.13-5.55 12.11 12.11 0 0110.14 4.8 12.77 12.77 0 012.79 8.05 15.7 15.7 0 01-.4 3.38l-11 52.72a4.91 4.91 0 01-1.72 2.87 4.7 4.7 0 01-3.12 1.19 3 3 0 01-2.55-1.19 3.43 3.43 0 01-.56-2.87L58.83 62a7.61 7.61 0 00.2-1.76 6.56 6.56 0 00-6.5-6.35A10.54 10.54 0 0043 61.67l-11.09 53.06a4.91 4.91 0 01-1.72 2.87 4.7 4.7 0 01-3.12 1.19 3 3 0 01-2.55-1.19 3.47 3.47 0 01-.56-2.87L35 61.67a7.18 7.18 0 00-.13-3c-.84-3.16-2.92-4.73-6.23-4.73a9.25 9.25 0 00-6.07 2.36 10.17 10.17 0 00-3.52 5.7l-11 52.72a5 5 0 01-1.73 2.87 4.68 4.68 0 01-3.11 1.19 3 3 0 01-2.56-1.18 3.47 3.47 0 01-.56-2.87zM123 64.45q1.32-6.84 7.81-11.94a25.53 25.53 0 0114.68-5.57c5.2-.29 17.63.61 20.8 3.64a11.4 11.4 0 013.81 7.84 12.61 12.61 0 01-.3 3.4l-8.59 43.7c-.68 2.78-2.44 5.58-6.82 9s-18.07 6-23.42 6.32-9.59-1-12.71-4a11.23 11.23 0 01-3.64-7.72 14.72 14.72 0 01.29-3.6zm36.16 2.18c.13-.6 1.18-5.45 1.15-6a5.25 5.25 0 00-2-3.81c-1.48-1.54-11.81-1.77-14.49-1.62a12.68 12.68 0 00-7.22 2.77 10.16 10.16 0 00-4 6L124.51 105a6.87 6.87 0 00-.15 1.76 5.6 5.6 0 001.82 3.9 8.26 8.26 0 006.4 2c2.67-.16 13.36-1.56 15.55-3.28a9.91 9.91 0 003.91-5.94zM74.24 170.08h-.59a4.25 4.25 0 01-4.2-4.29l32.31-161.5A4.25 4.25 0 01106 0h.59a4.25 4.25 0 014.2 4.29l-32.3 161.5a4.25 4.25 0 01-4.25 4.29z"/></g></g></svg>