<svg xmlns="http://www.w3.org/2000/svg" viewBox="0 0 155.92 40.36"><defs><style>.cls-1{fill:#fff;}</style></defs><title>アセット 1</title><g id="レイヤー_2" data-name="レイヤー 2"><g id="レイヤー_1-2" data-name="レイヤー 1"><path class="cls-1" d="M11.71,10.81c-.15.4-.3.86-.46,1.38s-.3,1-.46,1.6-.32,1.33-.48,2.12l-2.95,0c-.92,0-2,0-3.26,0S1.48,15.92,0,16c.35-1.12.73-2.46,1.16-4,.36-1.34.78-3,1.25-4.94s1-4.22,1.51-6.81c.58,0,1.22,0,1.92,0l2.1,0c.8,0,1.66,0,2.59-.12-.18.48-.38,1.06-.61,1.75S9.44,3.28,9.2,4s-.47,1.52-.69,2.28S8.1,7.77,7.93,8.39,7.64,9.54,7.56,10a1.82,1.82,0,0,0-.06.75q.06.09.36.15a6.7,6.7,0,0,0,.74.06h1l.95,0,.78-.05Z"/><path class="cls-1" d="M30.1.42c-.11.52-.24,1.08-.38,1.69s-.3,1.23-.46,1.85l-.48,1.86q-.23.93-.42,1.68c-.12.51-.23.95-.33,1.31s-.16.63-.2.79q-1,3.87-3.46,5.35a10.94,10.94,0,0,1-1.33.66,7.89,7.89,0,0,1-1.31.4,9.9,9.9,0,0,1-1.36.19c-.47,0-1,.05-1.48.05a8.71,8.71,0,0,1-1.77-.18,7,7,0,0,1-1.6-.53,4.55,4.55,0,0,1-1.24-.86,2.41,2.41,0,0,1-.67-1.19,3.75,3.75,0,0,1,0-1.2,15.87,15.87,0,0,1,.28-1.83q.21-1.05.51-2.31T15,5.57q.36-1.32.75-2.67L16.53.32c.8,0,1.57.07,2.3.08l2,0,1.88,0c-.19.52-.38,1.09-.58,1.72S21.7,3.39,21.51,4,21.15,5.32,21,5.94s-.31,1.21-.44,1.75-.24,1-.33,1.43-.15.73-.19,1a2.72,2.72,0,0,0,0,.67.63.63,0,0,0,.12.33.45.45,0,0,0,.21.12l.22,0a.53.53,0,0,0,.18-.07A1.72,1.72,0,0,0,21,10.9a2.38,2.38,0,0,0,.33-.47,3.71,3.71,0,0,0,.31-.78c.05-.19.14-.49.26-.91s.26-.89.41-1.45.32-1.14.48-1.78.33-1.25.47-1.87.28-1.2.4-1.75A13.63,13.63,0,0,0,23.91.5c1.14.05,2.2.08,3.19.09A23.21,23.21,0,0,0,30.1.42Z"/><path class="cls-1" d="M48.58,0c-.46.53-1,1.14-1.55,1.83S45.9,3.23,45.32,4,44.2,5.46,43.66,6.22s-1,1.5-1.4,2.2l.18,1c.09.5.22,1.09.37,1.78s.34,1.43.56,2.24.47,1.61.75,2.43c-.77,0-1.54,0-2.3,0s-1.34,0-2.07,0-1.39,0-2,.08c0-.51,0-1-.08-1.38a8.19,8.19,0,0,0-.16-1.07,2.71,2.71,0,0,0-.24-.69.4.4,0,0,0-.34-.24c-.09,0-.25.14-.46.38a6.94,6.94,0,0,0-.66.88c-.23.34-.45.71-.67,1.11a8.81,8.81,0,0,0-.51,1c-.58,0-1.2-.07-1.88-.08s-1.26,0-2,0-1.57,0-2.41.07c1.14-1.46,2.14-2.79,3-4a34.24,34.24,0,0,0,2.19-3.42,16.36,16.36,0,0,0-.21-2c-.13-.74-.28-1.5-.44-2.27s-.35-1.5-.55-2.22S32,.74,31.8.22c.58,0,1.23,0,1.94,0s1.3,0,2.11-.05S37.52.13,38.44.06c.11,2.75.32,4.12.64,4.12.15,0,.33-.13.56-.4a10,10,0,0,0,.75-1c.27-.4.56-.85.85-1.34L42.08,0l2,0c.62,0,1.31,0,2.09,0S47.77,0,48.58,0Z"/><path class="cls-1" d="M64,.42c-.1.52-.23,1.08-.38,1.69s-.3,1.23-.46,1.85-.31,1.25-.47,1.86S62.43,7,62.3,7.5s-.24.95-.33,1.31-.16.63-.2.79q-1,3.87-3.46,5.35a11.71,11.71,0,0,1-1.33.66,7.89,7.89,0,0,1-1.31.4,10.12,10.12,0,0,1-1.36.19c-.47,0-1,.05-1.48.05a8.71,8.71,0,0,1-1.77-.18,7,7,0,0,1-1.6-.53,4.77,4.77,0,0,1-1.25-.86,2.49,2.49,0,0,1-.67-1.19,4.45,4.45,0,0,1,0-1.2,18.4,18.4,0,0,1,.28-1.83c.15-.7.31-1.47.52-2.31s.42-1.69.66-2.58.49-1.77.75-2.67L50.47.32c.8,0,1.56.07,2.3.08l2,0,1.88,0c-.19.52-.38,1.09-.58,1.72S55.64,3.39,55.45,4s-.36,1.29-.52,1.91-.31,1.21-.44,1.75-.25,1-.33,1.43-.15.73-.19,1a2.72,2.72,0,0,0,0,.67.63.63,0,0,0,.12.33.45.45,0,0,0,.21.12l.22,0a.53.53,0,0,0,.18-.07A1.72,1.72,0,0,0,55,10.9a2.38,2.38,0,0,0,.33-.47,3.71,3.71,0,0,0,.31-.78c0-.19.14-.49.26-.91s.26-.89.41-1.45l.48-1.78c.17-.63.32-1.25.47-1.87s.28-1.2.4-1.75A13.63,13.63,0,0,0,57.85.5C59,.55,60.05.58,61,.59A23.06,23.06,0,0,0,64,.42Z"/><path class="cls-1" d="M75.42,10.81c-.15.4-.3.86-.46,1.38s-.3,1-.46,1.6-.32,1.33-.48,2.12l-2.94,0q-1.38,0-3.27,0c-1.25,0-2.62.05-4.1.12.35-1.12.74-2.46,1.16-4,.36-1.34.78-3,1.25-4.94s1-4.22,1.52-6.81c.57,0,1.21,0,1.92,0l2.1,0q1.2,0,2.58-.12c-.18.48-.38,1.06-.61,1.75S73.16,3.28,72.92,4s-.47,1.52-.69,2.28-.42,1.45-.58,2.07-.29,1.15-.37,1.57a1.82,1.82,0,0,0-.06.75q.06.09.36.15a6.5,6.5,0,0,0,.74.06h.94l.95,0,.78-.05Z"/><path class="cls-1" d="M93.29.14Q91.7,2.3,90.23,4.36L88.94,6.18c-.45.63-.88,1.25-1.3,1.87l-1.18,1.8c-.37.57-.7,1.09-1,1.56a3.46,3.46,0,0,1-.12.36c-.06.18-.14.46-.23.83s-.19.83-.31,1.4-.24,1.26-.38,2.09c-.42,0-1-.05-1.6-.06s-1.22,0-2,0-1.75,0-2.84.09q.24-.6.48-1.32c.15-.42.3-.89.47-1.42s.32-1.12.47-1.74c0-.12-.05-.41-.12-.85s-.15-1-.25-1.63S78.81,7.81,78.67,7s-.29-1.56-.46-2.36-.35-1.57-.54-2.34-.4-1.45-.61-2c.76,0,1.53,0,2.3,0s1.39,0,2.17,0S83.06.21,83.78.14c-.1,1.85-.15,3.21-.15,4.07s.11,1.29.29,1.27.19-.12.36-.37a10.44,10.44,0,0,0,.65-1.05c.26-.45.56-1,.9-1.66S86.53,1,86.9.22c.64,0,1.33.05,2,.06s1.31,0,2.07,0S92.53.21,93.29.14Z"/><path class="cls-1" d="M71.86,29.82a7.35,7.35,0,0,0-1.15-.1c-.45,0-.92,0-1.42,0s-1,0-1.58,0-1.08,0-1.6.06a1.15,1.15,0,0,0,.1-.34,1.26,1.26,0,0,0,0-.43.84.84,0,0,0-.1-.37.34.34,0,0,0-.26-.2,1.17,1.17,0,0,0-.79.06,1,1,0,0,0-.49.43.69.69,0,0,0,0,.58,1.13,1.13,0,0,0,.63.51,5.25,5.25,0,0,0,1.07.28c.38.05.76.11,1.13.18a8.18,8.18,0,0,1,1.19.27,4.26,4.26,0,0,1,1.09.46,3,3,0,0,1,.83.72,2.17,2.17,0,0,1,.42,1,4.5,4.5,0,0,1,0,1.18,6.86,6.86,0,0,1-.44,1.51,8.36,8.36,0,0,1-.9,1.6,6.72,6.72,0,0,1-1.42,1.45,6.89,6.89,0,0,1-1.83,1,9.51,9.51,0,0,1-2.07.52,11.8,11.8,0,0,1-2.24.09,21.82,21.82,0,0,1-2.36-.26,4.1,4.1,0,0,1-2-.78A2.62,2.62,0,0,1,56.8,38a3.8,3.8,0,0,1-.07-1.62,10.16,10.16,0,0,1,.42-1.71l1.86.08q.84,0,1.83,0c.66,0,1.32,0,2-.07a1.6,1.6,0,0,0-.06.51.49.49,0,0,0,.22.37,1,1,0,0,0,.72.15,1.36,1.36,0,0,0,.74-.29,1.15,1.15,0,0,0,.13-.17.39.39,0,0,0,.06-.3.56.56,0,0,0-.25-.33,1.7,1.7,0,0,0-.78-.24l-1.38-.26a9.57,9.57,0,0,1-1.35-.38,7.24,7.24,0,0,1-1.22-.59,3.85,3.85,0,0,1-1-.87,2,2,0,0,1-.38-1.15,5.79,5.79,0,0,1,.13-1.52A8.46,8.46,0,0,1,59,28a8.32,8.32,0,0,1,.79-1.42,5.69,5.69,0,0,1,1.56-1.49,9,9,0,0,1,2-1,11.34,11.34,0,0,1,2.26-.47,12.15,12.15,0,0,1,2.25,0,10,10,0,0,1,2,.37,5,5,0,0,1,1.49.72,3.19,3.19,0,0,1,.75.77,2.38,2.38,0,0,1,.34,1,5.18,5.18,0,0,1-.07,1.38A16.56,16.56,0,0,1,71.86,29.82Z"/><path class="cls-1" d="M88.24,24.07c-.17.42-.34.89-.52,1.42s-.31,1-.5,1.63-.37,1.34-.56,2.1c-.62-.06-1.2-.08-1.73-.08a1.94,1.94,0,0,0-1.11.24,1.76,1.76,0,0,0-.37.67c-.15.38-.32.86-.52,1.44s-.39,1.23-.6,1.95-.41,1.46-.6,2.21-.37,1.5-.53,2.23-.29,1.41-.38,2l-.86,0c-.45,0-1,0-1.6,0s-1.27,0-2,0a19.78,19.78,0,0,0-2,.19c.49-1.47.93-2.84,1.33-4.11s.72-2.39,1-3.35.47-1.74.6-2.32a2.92,2.92,0,0,0,.14-1c0-.1-.16-.15-.36-.17a4.3,4.3,0,0,0-.73,0,9.46,9.46,0,0,0-1,.09l-1.12.15c0-.14.15-.41.29-.82s.28-.87.44-1.39.3-1,.45-1.59a13.21,13.21,0,0,0,.3-1.43c1.12,0,2.34.07,3.66.08,1.13,0,2.45,0,4,0S86.51,24.14,88.24,24.07Z"/><path class="cls-1" d="M103.47,30.1a4.75,4.75,0,0,1-2.58,3.1,2.69,2.69,0,0,1,.65.38,2.85,2.85,0,0,1,.57.58,1.37,1.37,0,0,1,.14.82,7.93,7.93,0,0,1-.18,1.38c-.1.53-.25,1.12-.42,1.75s-.36,1.26-.56,1.89c-.44,0-1,0-1.56,0l-1.87,0c-.74,0-1.58.06-2.53.13.35-1,.6-1.89.76-2.56s.18-1.07.06-1.22a.55.55,0,0,0-.36-.21,2,2,0,0,0-.48,0,2.68,2.68,0,0,0-.43,0l-.23.06a1.13,1.13,0,0,0-.19.39c-.07.21-.15.45-.22.73s-.15.58-.23.89-.16.61-.22.88-.12.51-.16.7-.07.3-.08.33l-1.9,0H89.56c-.71,0-1.41.05-2.14.1.23-.65.48-1.44.77-2.37s.56-1.91.83-3,.56-2.1.83-3.18.5-2.1.72-3.06.39-1.83.53-2.6a17,17,0,0,0,.25-1.77c.92,0,1.85,0,2.79,0s1.91-.05,2.91-.15q.78-.06,1.56-.06c.52,0,1,0,1.53.08a10.22,10.22,0,0,1,1.42.26,6.35,6.35,0,0,1,1.21.46,1.89,1.89,0,0,1,.88.84,3.07,3.07,0,0,1,.33,1.24,5.67,5.67,0,0,1-.1,1.51A13,13,0,0,1,103.47,30.1Zm-5.88-.92a.64.64,0,0,0-.34-.19,1.09,1.09,0,0,0-.4,0,1.23,1.23,0,0,0-.35.05c-.1,0-.16,0-.17.06a1.31,1.31,0,0,0-.29.47,5.23,5.23,0,0,0-.26.73,5.32,5.32,0,0,0-.16.7,1.62,1.62,0,0,0,0,.38c0,.05.11.09.25.11a1.84,1.84,0,0,0,.47,0,2.47,2.47,0,0,0,.52-.13,1.08,1.08,0,0,0,.42-.3,3.06,3.06,0,0,0,.32-.54,2.51,2.51,0,0,0,.16-.54,1.18,1.18,0,0,0,0-.46A.53.53,0,0,0,97.59,29.18Z"/><path class="cls-1" d="M120.24,24c-.17.39-.34.84-.52,1.36s-.31,1-.49,1.58-.35,1.32-.51,2.13c-.56,0-1.13-.07-1.7-.08s-1.1,0-1.58,0-.88,0-1.21,0a3,3,0,0,0-.61.07s0,0-.06.06a.76.76,0,0,0-.09.16.56.56,0,0,0,0,.44c0,.09.16.15.37.18a8,8,0,0,0,.92,0l1.55-.09,2.26-.15c-.17.38-.34.82-.5,1.3s-.29.89-.43,1.44-.26,1.14-.37,1.78c-.52-.05-1-.09-1.58-.09s-1,0-1.49,0-.87,0-1.22.06-.61.05-.77.08a.27.27,0,0,0-.24.14.54.54,0,0,0-.06.25,1.16,1.16,0,0,0,.06.33,7.7,7.7,0,0,0,1.3.07l1.65-.06,1.5-.1.87-.07c-.19.48-.37,1-.54,1.52s-.3,1-.47,1.6a17,17,0,0,0-.41,1.92c-.84,0-1.7-.07-2.57-.08l-2.53,0c-.82,0-1.59,0-2.32,0l-2,0-1.4,0-.69,0q.88-2.7,1.68-5.44c.23-.79.47-1.62.71-2.48s.49-1.75.72-2.63.46-1.78.68-2.68.4-1.74.58-2.56c1,.06,2.06.09,3.28.1,1,0,2.25,0,3.65,0S118.59,24.11,120.24,24Z"/><path class="cls-1" d="M135.33,24a12.64,12.64,0,0,0-.52,1.36c-.15.44-.31,1-.49,1.58s-.35,1.32-.51,2.13c-.56,0-1.13-.07-1.7-.08s-1.1,0-1.58,0-.89,0-1.22,0a3.09,3.09,0,0,0-.61.07s0,0,0,.06a.76.76,0,0,0-.09.16.48.48,0,0,0-.07.21,1,1,0,0,0,0,.23c0,.09.17.15.38.18a7.94,7.94,0,0,0,.92,0l1.55-.09,2.26-.15a11.84,11.84,0,0,0-.5,1.3c-.15.41-.29.89-.43,1.44s-.27,1.14-.37,1.78c-.52-.05-1.05-.09-1.58-.09s-1,0-1.49,0-.87,0-1.23.06-.61.05-.77.08a.27.27,0,0,0-.24.14.54.54,0,0,0-.06.25A1.16,1.16,0,0,0,127,35a7.77,7.77,0,0,0,1.3.07L130,35l1.5-.1.87-.07c-.19.48-.37,1-.54,1.52s-.31,1-.47,1.6a15.09,15.09,0,0,0-.41,1.92c-.84,0-1.7-.07-2.58-.08l-2.53,0c-.81,0-1.58,0-2.32,0l-2,0-1.4,0-.69,0q.89-2.7,1.68-5.44c.23-.79.46-1.62.71-2.48s.49-1.75.72-2.63.46-1.78.67-2.68.41-1.74.58-2.56c1,.06,2.07.09,3.28.1,1.05,0,2.26,0,3.66,0S133.67,24.11,135.33,24Z"/><path class="cls-1" d="M151.08,24.07c-.18.42-.35.89-.52,1.42s-.32,1-.5,1.63-.38,1.34-.56,2.1c-.63-.06-1.21-.08-1.73-.08a2,2,0,0,0-1.12.24,1.91,1.91,0,0,0-.37.67c-.15.38-.32.86-.52,1.44s-.39,1.23-.6,1.95-.4,1.46-.6,2.21-.37,1.5-.53,2.23-.28,1.41-.38,2l-.86,0c-.45,0-1,0-1.6,0s-1.27,0-2,0-1.36.1-2,.19c.49-1.47.94-2.84,1.33-4.11s.72-2.39,1-3.35.47-1.74.6-2.32a2.92,2.92,0,0,0,.14-1c0-.1-.16-.15-.36-.17a4.28,4.28,0,0,0-.73,0,9.46,9.46,0,0,0-1,.09l-1.12.15c0-.14.15-.41.29-.82s.29-.87.44-1.39.3-1,.45-1.59a9.68,9.68,0,0,0,.3-1.43c1.12,0,2.34.07,3.66.08,1.14,0,2.46,0,4,0S149.34,24.14,151.08,24.07Z"/><path class="cls-1" d="M155.8,37.58a3.7,3.7,0,0,1-.53,1.17,2.92,2.92,0,0,1-.82.79,3.48,3.48,0,0,1-1,.44,5,5,0,0,1-1.16.14,4.06,4.06,0,0,1-1.09-.14,1.74,1.74,0,0,1-.79-.44,1.44,1.44,0,0,1-.39-.79,2.71,2.71,0,0,1,.09-1.17,3.29,3.29,0,0,1,.53-1.18,2.89,2.89,0,0,1,.82-.78,3.27,3.27,0,0,1,1-.44,4.91,4.91,0,0,1,1.16-.14,4.11,4.11,0,0,1,1.09.14,1.74,1.74,0,0,1,.79.44,1.45,1.45,0,0,1,.39.78A2.78,2.78,0,0,1,155.8,37.58Z"/></g></g></svg>