<svg xmlns="http://www.w3.org/2000/svg" viewBox="0 0 71.53 16.75"><defs><style>.cls-1{fill:#fff;}</style></defs><title>アセット 7</title><g id="レイヤー_2" data-name="レイヤー 2"><g id="レイヤー_1-2" data-name="レイヤー 1"><path class="cls-1" d="M19.11.37q-.73,2.42-1.5,5.1c-.21.76-.44,1.58-.67,2.44s-.47,1.77-.7,2.69-.46,1.88-.68,2.85-.43,1.93-.61,2.89l-2-.09c-.61,0-1.31,0-2.11,0s-1.64,0-2.51.1c0-.36,0-.77-.05-1.23l-.06-1.4c0-.48,0-1-.08-1.41s-.07-.86-.12-1.21a5,5,0,0,0-.16-.82c-.06-.2-.13-.28-.21-.26s-.13.16-.21.38-.14.5-.22.8-.14.63-.21,1-.12.63-.18.86l-.12.71c0,.17,0,.36-.09.56s-.07.44-.12.74-.12.71-.23,1.26c-.57,0-1.19,0-1.86,0s-1.24,0-2,0-1.56.07-2.4.14C.27,15.76.55,15,.84,14s.58-1.91.86-2.94S2.25,9,2.5,8s.48-2.07.69-3,.38-1.83.52-2.62S4,.89,4,.41c.54,0,1.16.07,1.88.08s1.37,0,2.25,0S10,.43,11.19.35c0,.21,0,.53,0,.94s0,.87,0,1.37,0,1,0,1.55,0,1,.08,1.45a7.46,7.46,0,0,0,.16,1.07c.06.28.14.43.24.44s.11-.12.17-.37.12-.54.19-.9.13-.72.21-1.09.13-.68.19-.92.13-.55.17-.74.06-.39.1-.6.07-.48.11-.79.1-.76.2-1.33c.68,0,1.38.07,2.1.08s1.28,0,2,0S18.46.44,19.11.37Z"/><path class="cls-1" d="M33.48.43A12.64,12.64,0,0,0,33,1.79c-.15.44-.31,1-.49,1.58S32.12,4.69,32,5.49c-.56,0-1.13-.06-1.7-.08l-1.58,0c-.48,0-.89,0-1.22,0a4.21,4.21,0,0,0-.61.07s0,0-.06.06-.05.09-.08.16a.58.58,0,0,0-.07.21.91.91,0,0,0,0,.23c0,.1.17.15.37.18a5.19,5.19,0,0,0,.93,0c.4,0,.92,0,1.55-.09l2.26-.15a12.67,12.67,0,0,0-.5,1.3c-.15.42-.29.9-.43,1.44s-.27,1.14-.37,1.78c-.52-.05-1.05-.08-1.58-.09H27.41l-1.23.06-.77.08a.29.29,0,0,0-.24.14.57.57,0,0,0-.06.25,1.16,1.16,0,0,0,.06.33,6.82,6.82,0,0,0,1.3.07c.55,0,1.1,0,1.66-.06l1.5-.1.87-.07q-.29.72-.54,1.53c-.15.46-.31,1-.47,1.6a15.09,15.09,0,0,0-.41,1.92c-.84,0-1.7-.07-2.58-.08l-2.53,0c-.81,0-1.58,0-2.32,0l-1.95,0c-.57,0-1,0-1.4,0l-.69,0q.88-2.7,1.68-5.45c.23-.78.46-1.61.71-2.48s.49-1.74.72-2.63.46-1.78.67-2.67S21.8,1.3,22,.49c1,.05,2.07.09,3.28.1,1,0,2.26,0,3.66,0S31.82.51,33.48.43Z"/><path class="cls-1" d="M57.25.59q-1.36,2.57-2.74,5.28L53.28,8.34c-.44.88-.87,1.77-1.29,2.68s-.85,1.84-1.27,2.78-.82,1.85-1.19,2.76c-.6-.07-1.23-.12-1.88-.16s-1.19,0-1.88-.06a16.44,16.44,0,0,0-2.09.08c0-.59.08-1.2.12-1.84s.07-1.23.07-1.76a8.75,8.75,0,0,0-.06-1.34c0-.35-.13-.53-.25-.53s-.22.11-.39.33a9.48,9.48,0,0,0-.55.86c-.2.36-.41.75-.63,1.18s-.43.85-.63,1.27-.38.81-.54,1.18l-.38.87c-1-.08-1.84-.13-2.63-.15s-1.48,0-2.05,0-1.27,0-1.8.08a16.8,16.8,0,0,0,.35-1.85c.11-.78.22-1.65.31-2.61s.18-2,.26-3,.15-2.1.2-3.14.09-2,.1-3,0-1.76,0-2.45c1,.07,1.87.11,2.69.13L40,.69c.71,0,1.34,0,1.9,0-.14.59-.28,1.23-.41,1.92s-.22,1.34-.29,1.94A12.57,12.57,0,0,0,41.1,6c0,.4.09.6.22.6s.22-.1.37-.31a5.63,5.63,0,0,0,.5-.83c.18-.35.38-.74.58-1.17s.42-.87.62-1.32L44,1.67c.21-.43.41-.8.59-1.12l1,0,1,0c.38,0,.77,0,1.19,0,0,.2,0,.49-.07.86s-.07.78-.09,1.23,0,.9-.07,1.36,0,.88,0,1.26a4.48,4.48,0,0,0,.08.92q.06.36.21.33c.17,0,.35-.15.53-.43A8.57,8.57,0,0,0,49,4.91c.22-.51.47-1.12.75-1.85s.58-1.54.93-2.45c.45,0,1,.07,1.64.08s1.24,0,2.05,0S56.14.66,57.25.59Z"/><path class="cls-1" d="M70.94,6.21a11,11,0,0,0-1.15-.1l-1.42,0-1.58,0c-.54,0-1.08,0-1.6.06a1.06,1.06,0,0,0,.1-.34,1.26,1.26,0,0,0,0-.43.88.88,0,0,0-.1-.37.36.36,0,0,0-.26-.2,1.17,1.17,0,0,0-.79.06,1,1,0,0,0-.49.43.69.69,0,0,0,0,.58,1.05,1.05,0,0,0,.63.51,4.21,4.21,0,0,0,1.07.28l1.14.18c.4.07.79.16,1.19.27a5.24,5.24,0,0,1,1.08.46,3.39,3.39,0,0,1,.83.72,2.21,2.21,0,0,1,.42,1,4.49,4.49,0,0,1,0,1.18,6.93,6.93,0,0,1-.44,1.52,8.68,8.68,0,0,1-.9,1.6,6.49,6.49,0,0,1-1.42,1.45,6.74,6.74,0,0,1-1.83,1,10.12,10.12,0,0,1-2.07.52,11.8,11.8,0,0,1-2.24.09,21.82,21.82,0,0,1-2.36-.26,4.1,4.1,0,0,1-2-.78,2.66,2.66,0,0,1-.87-1.31,3.84,3.84,0,0,1-.07-1.63,10.16,10.16,0,0,1,.42-1.71l1.86.08q.84,0,1.83,0c.66,0,1.33,0,2-.07a1.6,1.6,0,0,0-.06.51.5.5,0,0,0,.22.37,1,1,0,0,0,.72.16,1.45,1.45,0,0,0,.74-.3.77.77,0,0,0,.13-.17.38.38,0,0,0,.06-.3.56.56,0,0,0-.25-.33,2,2,0,0,0-.78-.24c-.45-.08-.91-.16-1.38-.26A8.4,8.4,0,0,1,60,10.15a6.54,6.54,0,0,1-1.22-.59,3.51,3.51,0,0,1-1-.87,2,2,0,0,1-.38-1.15A5.83,5.83,0,0,1,57.52,6,8.16,8.16,0,0,1,58,4.41,8,8,0,0,1,58.83,3,5.55,5.55,0,0,1,60.39,1.5a8.39,8.39,0,0,1,2-1A11.34,11.34,0,0,1,64.68.07a12.24,12.24,0,0,1,2.26,0,9.25,9.25,0,0,1,2,.37,5,5,0,0,1,1.49.72,3.19,3.19,0,0,1,.75.77,2.28,2.28,0,0,1,.34,1,5.18,5.18,0,0,1-.07,1.38A17,17,0,0,1,70.94,6.21Z"/></g></g></svg>